<svg id="Camada_1" data-name="Camada 1" xmlns="http://www.w3.org/2000/svg" viewBox="0 0 131.74468 125.53949"><path d="M65.87314,124.255a60.62752,60.62752,0,1,1,60.62752-60.62752A60.69693,60.69693,0,0,1,65.87314,124.255m0-118.74179a58.11427,58.11427,0,1,0,58.11427,58.11427A58.17945,58.17945,0,0,0,65.87314,5.51324" style="fill:#1b242c"/><path d="M65.87314,117.13435A53.50716,53.50716,0,1,1,119.3787,63.62721a53.56676,53.56676,0,0,1-53.50556,53.50714m0-102.825A49.31788,49.31788,0,1,0,115.191,63.62721,49.374,49.374,0,0,0,65.87314,14.30933" style="fill:#cc9e51"/><path d="M90.6402,80.34975A20.31609,20.31609,0,0,0,90.822,69.1342a12.84153,12.84153,0,0,0-4.24352-6.642l.0016-.008c-.04784-.04146-.09409-.067-.14033-.10685-.3333-.27109-.65543-.51669-.97437-.73357-.07176-.051-.14353-.10206-.21529-.1499-.15787-.10526-.30778-.19933-.46087-.29182-.03508-.02074-.07654-.05424-.11163-.075l-.00319.00637c-.13554-.07974-.28067-.17223-.40824-.2424l.0016.0016a.57938.57938,0,0,1-.05263-.0319,6.87863,6.87863,0,0,1-.60758,2.95659l-.01116.01913a3.38022,3.38022,0,0,1-.69211.9361c-.02073.02073-.04306.03667-.06379.05582-2.21823,2.05877-5.97535-.5119-7.84914-2.72535a8.02725,8.02725,0,0,1-2.11777-4.07768s5.2721.64267,5.81111-1.42089c.4513-1.72387.68892-2.84972.68892-2.84972s-5.16685-.54859-8.35466,2.74927a11.5843,11.5843,0,0,0,.9313,3.32176l-.00159.00319c.00319.00956.01116.01915.01434.02711.01277.03032.02712.059.04147.08772a8.198,8.198,0,0,0,1.18965,1.99815c.14193.19138.30459.37476.46725.56135a23.47788,23.47788,0,0,0,3.09054,2.91512l-.00638-.00479a13.59135,13.59135,0,0,1,1.90886,2.30913,14.7275,14.7275,0,0,1-.07017,17.3807c-4.97388,7.30694-6.0535,9.345-8.30841,13.968C73.50667,94.60483,82.614,94.39273,86.61675,89.43c3.70131-4.58636,1.22792-14.1195,1.22792-14.1195,1.36666.80373,2.42874,3.86395,2.79553,5.03925" style="fill:#cc9e51"/><path d="M67.70467,48.03034a32.07628,32.07628,0,0,1,10.95084-3.17825l-.06857-.01116s4.75062-6.3214,8.92875-6.42825c3.06024-.07813,3.65826,3.4063,3.76032,5.27689a.16448.16448,0,0,1-.319.06378c-.45926-1.18647-1.47031-2.888-3.44137-2.62807-2.39684.31415-3.59446,3.0411-3.97879,4.11432a22.14667,22.14667,0,0,1,11.40853,5.62934s1.59151,1.62339,2.33305,1.66646c.93291.0558-3.41266-6.92423-3.50037-11.8726,0,0-.32055-5.2992-5.25616-6.14918-7.3181-1.25981-16.75238,3.83847-20.81728,13.51672" style="fill:#cc9e51"/><path d="M65.85337,46.36146v.17384l.01913-.0941c.01435.0622.02073.0941.02073.0941v-.17384c.26791-1.15456,2.357-8.44077,13.28709-13.976,0,0-1.48149-2.03324-6.315-2.39367-1.66168-3.41267-6.96407-5.19236-6.96407-5.19236h-.05582s-5.304,1.77969-6.96408,5.19236c-4.83515.36043-6.31662,2.39367-6.31662,2.39367,10.9301,5.53521,13.01916,12.82142,13.28868,13.976" style="fill:#cc9e51"/><path d="M34.46733,52.53586c.74154-.04465,2.33305-1.66646,2.33305-1.66646a22.1466,22.1466,0,0,1,11.40853-5.62931c-.38432-1.07322-1.58194-3.80018-3.9788-4.11593-1.97105-.25834-2.98209,1.44321-3.44137,2.62968a.16455.16455,0,0,1-.31893-.06539c.10046-1.87059.69847-5.355,3.7603-5.27689,4.17814.10685,8.92876,6.42827,8.92876,6.42827l-.07017.01275a32.07724,32.07724,0,0,1,10.95245,3.17824C59.97624,38.35255,50.542,33.25429,43.22386,34.5141c-4.93562.85-5.25615,6.14919-5.25615,6.14919-.08771,4.94837-4.43329,11.92839-3.50038,11.87257" style="fill:#cc9e51"/><path d="M92.93658,52.43539c-3.24842-3.2755-7.93367-4.54808-10.911-5.044a10.34935,10.34935,0,0,0-2.845-.31415s-.539.57729.85158,1.04453c1.59311.53582,2.35857.92652,2.86409,1.63138.31575.52944.79735,1.76533.87391,4.52419.06059,2.15763.13873,3.19579.21527,3.8815.28705.12278.65384.2982,1.05889.51031.23921.126.49755.27268.76546.43056.03987.02392.07654.04465.118.06857.05582.03351.11641.075.17223.11.28386.177.57728.36839.88028.58369a15.25622,15.25622,0,0,1,6.09656,8.67839,22.59334,22.59334,0,0,1-.01914,11.8933c-.18339.81648-.33648,1.2965-.33648,1.2965,8.318-8.20635,4.529-19.48093,4.529-19.48093,3.33134.472,4.24511-.59641,4.24511-.59641-2.88323-2.349-3.45892-4.07607-8.55878-9.21742" style="fill:#cc9e51"/><path d="M37.81509,74.81836l.00479.00958v-.17541a23.279,23.279,0,0,1,.775-6.11252A15.26826,15.26826,0,0,1,44.835,59.76436c.28545-.19776.56453-.38274.83084-.54541.10845-.067.2137-.12758.31735-.18817.25516-.14989.50552-.29022.73356-.40824.40347-.2089.76706-.37955,1.04773-.49754.075-.68413.1515-1.72547.21209-3.848.07655-2.75884.55655-3.99472.8739-4.52417.50553-.70486,1.271-1.09558,2.8625-1.6314,1.39218-.46725.85157-1.04292.85157-1.04292a10.23266,10.23266,0,0,0-2.845.31414c-2.97731.49436-7.661,1.76694-10.911,5.04246-5.09987,5.14133-5.67556,6.86841-8.55878,9.2174,0,0,.91376,1.06845,4.24511.59643,0,0-3.78743,11.27456,4.529,19.48094,0,0-.016-.05424-.04146-.13875a21.07263,21.07263,0,0,1-1.16732-6.77273" style="fill:#cc9e51"/><path d="M53.16207,85.10406a14.67353,14.67353,0,0,1-.40347-16.88314,12.34411,12.34411,0,0,1,2.19911-2.80669l-.0048.00479a23.52141,23.52141,0,0,0,3.08895-2.91513c.16266-.18656.32533-.37.46885-.56292a8.10267,8.10267,0,0,0,1.18806-1.99657c.01434-.02872.0287-.059.043-.0877.00319-.00959.00957-.01754.01275-.02713L59.753,59.8248a11.57125,11.57125,0,0,0,.93131-3.32179c-3.18782-3.29784-8.35466-2.74766-8.35466-2.74766s.23761,1.12427.68891,2.84974c.539,2.062,5.8111,1.42087,5.8111,1.42087A8.02,8.02,0,0,1,56.71188,62.102c-1.87378,2.21506-5.6309,4.78572-7.84756,2.727-.02232-.02074-.04465-.03509-.06537-.05582a3.43582,3.43582,0,0,1-.69211-.93611.11906.11906,0,0,0-.01115-.01912,6.85783,6.85783,0,0,1-.606-2.95659.582.582,0,0,0-.05262.0319v-.00161c-.12758.07018-.27269.16109-.40824.24241l-.00159-.008c-.03669.02234-.07815.05582-.11324.07655-.15149.09249-.30139.18659-.46086.29023-.07177.04786-.14353.10047-.21529.14991q-.476.3277-.97277.73516c-.04784.03986-.09408.06538-.14192.10524l.00159.00959a12.83479,12.83479,0,0,0-4.24352,6.64194,20.31625,20.31625,0,0,0,.1818,11.21557c.36678-1.1753,1.42886-4.23713,2.79712-5.03928,0,0-2.08429,9.24293,1.22632,14.11952,2.96456,4.36631,12.87087,4.95635,16.09537,9.05315-2.06674-4.22119-3.26277-6.39159-8.01977-13.37959" style="fill:#cc9e51"/><path d="M78.91656,73.81339c-1.25662,2.69345-3.2532,3.47487-6.4139,3.1352-3.57215-.38593-5.77922-3.29787-5.89883-4.09522a1.4435,1.4435,0,0,1,.54061-1.53888,3.03834,3.03834,0,0,1,1.95192-1.09875c.98872-.08293,2.39047-.3301,2.5005-1.64894.07176-.85634.08132-.98073.08132-.98073s-1.9232-.09091-2.77478-.14513a22.88375,22.88375,0,0,0-3.01081-.3923v-.00158h-.03987v.00158h-.00318v-.00158h-.03827v.00158a22.88355,22.88355,0,0,0-3.0108.3923c-.85318.05422-2.7748.14513-2.7748.14513s.00958.12439.08134.98073c.11,1.31884,1.51177,1.566,2.50049,1.64894a3.03421,3.03421,0,0,1,1.95033,1.09875A1.44411,1.44411,0,0,1,65.1,72.85337c-.11959.79735-2.32827,3.70929-5.9004,4.09522-3.13519.33648-5.127-.42739-6.3852-3.07142A12.55881,12.55881,0,0,0,55.06454,83.809c5.194,7.629,6.28633,9.758,8.65607,14.62662.69689,1.27736,1.279,2.49411,1.877,3.78424a.27945.27945,0,0,0,.25355.236.28359.28359,0,0,0,.25357-.236,46.82938,46.82938,0,0,1,2.2262-4.40936c2.1688-4.44126,3.384-6.70734,8.34988-14.0015a12.54572,12.54572,0,0,0,2.23578-9.99563m-5.75369,7.55889c-1.15138,1.28855-3.56417,6.21936-7.28941,6.2369l-.00638-.00159h-.03029l-.00639.00159c-3.72523-.01754-6.138-4.94835-7.2894-6.2369-1.15456-1.29171-.49435-1.78606-.49435-1.78606a12.7527,12.7527,0,0,1,7.78375-3.022h.04306a12.75272,12.75272,0,0,1,7.78376,3.022s.66021.49435-.49435,1.78606" style="fill:#cc9e51"/></svg>